<svg xmlns="http://www.w3.org/2000/svg" xmlns:xlink="http://www.w3.org/1999/xlink" width="33" height="36" version="1.1" viewBox="0 0 33 36"><title>crane1</title><desc>Created with Sketch.</desc><g id="Page-1" fill="none" fill-rule="evenodd" stroke="none" stroke-width="1"><g id="crane1"><g id="XMLID_4038_"><g id="XMLID_4084_"><g id="XMLID_4306_" fill="#AAA9A9" transform="translate(23.000000, 0.000000)"><g id="XMLID_4307_"><path id="XMLID_4308_" d="M4.4,9.2 L0.6,6.3 L5,0.5 C5.2,0.3 5.4,0.2 5.6,0.4 L5.6,0.4 C5.8,0.6 5.8,0.9 5.6,1.1 L2,6 L4.1,7.5 L8.6,1.9 C8.8,1.7 9,1.6 9.2,1.8 L9.2,1.8 C9.4,2 9.4,2.3 9.2,2.5 L4.4,9.2 L4.4,9.2 Z"/></g></g><g id="XMLID_4085_" transform="translate(0.000000, 3.000000)"><g id="XMLID_4299_" transform="translate(20.000000, 0.000000)"><g id="XMLID_4304_" fill="#AAA9A9" transform="translate(0.000000, 6.000000)"><path id="XMLID_4305_" d="M4.5,4.7 C5.6,3.2 5,2.3 4.5,1.7 C4.5,1.7 4.9,1.2 4.9,1.1 L3.6,0.1 L3.1,0.7 C3.1,0.7 2.6,1.3 2.8,1.6 C3.4,2.3 3.7,3.2 3.2,3.9 C2.7,4.7 2,4.6 1.3,4.1 C0.6,3.6 0.9,2.3 0.6,2.2 C0.5,2.2 0.6,2.4 0.5,2.6 C0.3,3.1 0.1,4.2 1,4.9 C2.4,5.9 3.7,5.7 4.5,4.7 L4.5,4.7 Z"/></g><g id="XMLID_4302_" fill="#E27228" transform="translate(1.000000, 0.000000)"><path id="XMLID_4303_" d="M8.7,4 C8.7,4 4.5,0.8 4,0.5 C3.7,0.3 3.1,0.2 2.6,0.8 C2.6,0.8 1,4.2 1,4.4 C0.9,4.7 1,5.1 1.3,5.3 L5.1,8.2 C5.5,8.5 5.9,8.3 6.2,8 C6.6,7.7 8.3,6.2 8.9,5.6 C9.3,5.1 9.2,4.5 8.7,4 L8.7,4 Z"/></g><g id="XMLID_4300_" fill="#F4C44B" transform="translate(2.000000, 0.000000)"><path id="XMLID_4301_" d="M7.3,3.8 C7.3,3.8 3.4,0.8 2.9,0.5 C2.6,0.3 2.1,0.2 1.6,0.7 C1.6,0.7 0.1,3.9 0.1,4.1 C3.42087469e-15,4.4 0.1,4.7 0.3,4.9 L3.9,7.6 C4.2,7.9 4.6,7.7 5,7.4 C5.4,7.1 6.9,5.7 7.5,5.1 C7.9,4.8 7.9,4.2 7.3,3.8 L7.3,3.8 Z"/></g></g><path id="XMLID_4298_" fill="#666" d="M27,5 C26.5,5.6 25.6,5.8 25,5.3 C24.4,4.8 24.2,3.9 24.7,3.3 C25.2,2.7 26.1,2.5 26.7,3 C27.3,3.5 27.5,4.4 27,5 L27,5 Z"/><g id="XMLID_4086_" transform="translate(0.000000, 7.000000)"><g id="XMLID_4296_" fill="#F2C31B"><rect id="XMLID_4297_" width="27.1" height="10.1" x=".999" y="8.13" transform="translate(14.549025, 13.179625) rotate(36.955841) translate(-14.549025, -13.179625)"/></g><g id="XMLID_4098_" transform="translate(2.000000, 2.000000)"><g id="XMLID_4247_"><g id="XMLID_4279_" fill="#B06223"><rect id="XMLID_4295_" width=".7" height="8.4" x="2.697" y="-.039" transform="translate(3.047315, 4.160980) rotate(36.955841) translate(-3.047315, -4.160980)"/></g><g id="XMLID_4277_" fill="#E48124" transform="translate(0.000000, 1.000000)"><rect id="XMLID_4278_" width=".4" height="8.1" x="2.96" y="-.595" transform="translate(3.160280, 3.454735) rotate(36.955841) translate(-3.160280, -3.454735)"/></g><g id="XMLID_4275_" fill="#B06223" transform="translate(1.000000, 1.000000)"><rect id="XMLID_4276_" width=".7" height="8.4" x="3.1" y="-.008" transform="translate(3.449755, 4.192060) rotate(36.955841) translate(-3.449755, -4.192060)"/></g><g id="XMLID_4273_" fill="#E48124" transform="translate(1.000000, 2.000000)"><rect id="XMLID_4274_" width=".4" height="8.1" x="3.283" y="-.624" transform="translate(3.482810, 3.425595) rotate(36.955841) translate(-3.482810, -3.425595)"/></g><g id="XMLID_4271_" fill="#B06223" transform="translate(3.000000, 2.000000)"><rect id="XMLID_4272_" width=".7" height="8.4" x="2.502" y=".023" transform="translate(2.852095, 4.223240) rotate(36.955841) translate(-2.852095, -4.223240)"/></g><g id="XMLID_4269_" fill="#E48124" transform="translate(3.000000, 3.000000)"><rect id="XMLID_4270_" width=".4" height="8.1" x="2.685" y="-.593" transform="translate(2.885250, 3.456675) rotate(36.955841) translate(-2.885250, -3.456675)"/></g><g id="XMLID_4267_" fill="#B06223" transform="translate(4.000000, 3.000000)"><rect id="XMLID_4268_" width=".7" height="8.4" x="2.813" y=".002" transform="translate(3.162525, 4.202500) rotate(36.955841) translate(-3.162525, -4.202500)"/></g><g id="XMLID_4265_" fill="#E48124" transform="translate(4.000000, 4.000000)"><rect id="XMLID_4266_" width=".4" height="8.1" x="2.996" y="-.614" transform="translate(3.195580, 3.435935) rotate(36.955841) translate(-3.195580, -3.435935)"/></g><g id="XMLID_4262_" fill="#B06223" transform="translate(5.000000, 4.000000)"><rect id="XMLID_4263_" width=".7" height="8.4" x="3.164" y=".107" transform="translate(3.513845, 4.307190) rotate(36.955841) translate(-3.513845, -4.307190)"/></g><g id="XMLID_4260_" fill="#E48124" transform="translate(6.000000, 5.000000)"><rect id="XMLID_4261_" width=".4" height="8.1" x="2.407" y="-.589" transform="translate(2.606920, 3.460915) rotate(36.955841) translate(-2.606920, -3.460915)"/></g><g id="XMLID_4258_" fill="#B06223" transform="translate(7.000000, 5.000000)"><rect id="XMLID_4259_" width=".7" height="8.4" x="2.474" y=".087" transform="translate(2.824075, 4.286550) rotate(36.955841) translate(-2.824075, -4.286550)"/></g><g id="XMLID_4256_" fill="#E48124" transform="translate(7.000000, 6.000000)"><rect id="XMLID_4257_" width=".4" height="8.1" x="2.717" y="-.61" transform="translate(2.917350, 3.440175) rotate(36.955841) translate(-2.917350, -3.440175)"/></g><g id="XMLID_4254_" fill="#B06223" transform="translate(8.000000, 6.000000)"><rect id="XMLID_4255_" width=".7" height="8.4" x="2.861" y=".094" transform="translate(3.210615, 4.294430) rotate(36.955841) translate(-3.210615, -4.294430)"/></g><g id="XMLID_4252_" fill="#E48124" transform="translate(8.000000, 7.000000)"><rect id="XMLID_4253_" width=".4" height="8.1" x="3.104" y="-.602" transform="translate(3.303590, 3.448055) rotate(36.955841) translate(-3.303590, -3.448055)"/></g><g id="XMLID_4250_" fill="#B06223" transform="translate(9.000000, 7.000000)"><rect id="XMLID_4251_" width=".7" height="8.4" x="3.199" y=".089" transform="translate(3.548845, 4.288690) rotate(36.955841) translate(-3.548845, -4.288690)"/></g><g id="XMLID_4248_" fill="#E48124" transform="translate(9.000000, 8.000000)"><rect id="XMLID_4249_" width=".4" height="8.1" x="3.382" y="-.528" transform="translate(3.581900, 3.522225) rotate(36.955841) translate(-3.581900, -3.522225)"/></g></g><g id="XMLID_4099_" transform="translate(11.000000, 8.000000)"><g id="XMLID_4245_" fill="#B06223"><rect id="XMLID_4246_" width=".7" height="8.4" x="2.585" y=".097" transform="translate(2.935185, 4.296770) rotate(36.955841) translate(-2.935185, -4.296770)"/></g><g id="XMLID_4243_" fill="#E48124" transform="translate(0.000000, 1.000000)"><rect id="XMLID_4244_" width=".4" height="8.1" x="2.768" y="-.52" transform="translate(2.968040, 3.530205) rotate(36.955841) translate(-2.968040, -3.530205)"/></g><g id="XMLID_4241_" fill="#B06223" transform="translate(1.000000, 1.000000)"><rect id="XMLID_4242_" width=".7" height="8.4" x="2.863" y=".171" transform="translate(3.213295, 4.370840) rotate(36.955841) translate(-3.213295, -4.370840)"/></g><g id="XMLID_4239_" fill="#E48124" transform="translate(1.000000, 2.000000)"><rect id="XMLID_4240_" width=".4" height="8.1" x="3.106" y="-.526" transform="translate(3.306470, 3.524465) rotate(36.955841) translate(-3.306470, -3.524465)"/></g><g id="XMLID_4237_" fill="#B06223" transform="translate(2.000000, 2.000000)"><rect id="XMLID_4238_" width=".7" height="8.4" x="3.31" y=".099" transform="translate(3.659755, 4.299010) rotate(36.955841) translate(-3.659755, -4.299010)"/></g><g id="XMLID_4235_" fill="#E48124" transform="translate(3.000000, 3.000000)"><rect id="XMLID_4236_" width=".4" height="8.1" x="2.493" y="-.518" transform="translate(2.692710, 3.532345) rotate(36.955841) translate(-2.692710, -3.532345)"/></g><g id="XMLID_4233_" fill="#B06223" transform="translate(4.000000, 3.000000)"><rect id="XMLID_4234_" width=".7" height="8.4" x="2.566" y=".188" transform="translate(2.916065, 4.388080) rotate(36.955841) translate(-2.916065, -4.388080)"/></g><g id="XMLID_4231_" fill="#E48124" transform="translate(4.000000, 4.000000)"><rect id="XMLID_4232_" width=".4" height="8.1" x="2.809" y="-.508" transform="translate(3.009240, 3.541705) rotate(36.955841) translate(-3.009240, -3.541705)"/></g><g id="XMLID_4229_" fill="#B06223" transform="translate(5.000000, 4.000000)"><rect id="XMLID_4230_" width=".7" height="8.4" x="2.965" y=".188" transform="translate(3.314505, 4.387760) rotate(36.955841) translate(-3.314505, -4.387760)"/></g><g id="XMLID_4227_" fill="#E48124" transform="translate(5.000000, 5.000000)"><rect id="XMLID_4228_" width=".4" height="8.1" x="3.208" y="-.509" transform="translate(3.407580, 3.541285) rotate(36.955841) translate(-3.407580, -3.541285)"/></g><g id="XMLID_4106_" fill="#B06223" transform="translate(6.000000, 5.000000)"><rect id="XMLID_4107_" width=".7" height="8.4" x="3.303" y=".182" transform="translate(3.652835, 4.381920) rotate(36.955841) translate(-3.652835, -4.381920)"/></g><g id="XMLID_4104_" fill="#E48124" transform="translate(7.000000, 6.000000)"><rect id="XMLID_4105_" width=".4" height="8.1" x="2.486" y="-.434" transform="translate(2.685790, 3.615555) rotate(36.955841) translate(-2.685790, -3.615555)"/></g><g id="XMLID_4102_" fill="#B06223" transform="translate(8.000000, 6.000000)"><rect id="XMLID_4103_" width=".7" height="8.4" x="2.693" y=".221" transform="translate(3.043175, 4.421300) rotate(36.955841) translate(-3.043175, -4.421300)"/></g><g id="XMLID_4100_" fill="#E48124" transform="translate(8.000000, 7.000000)"><rect id="XMLID_4101_" width=".4" height="8.1" x="2.876" y="-.395" transform="translate(3.076330, 3.654835) rotate(36.955841) translate(-3.076330, -3.654835)"/></g></g></g><g id="XMLID_4096_" fill="#E48124" transform="translate(6.000000, 1.000000)"><rect id="XMLID_4097_" width="27.1" height=".4" x="-2.113" y="8.115" transform="translate(11.437035, 8.315470) rotate(36.955841) translate(-11.437035, -8.315470)"/></g><g id="XMLID_4092_" fill="#405A74" transform="translate(7.000000, 1.000000)"><g id="XMLID_4093_"><path id="XMLID_4095_" d="M15.4,2.4 C15.3,2.3 15.3,2.2 15.2,2.2 L15.2,2.2 C14.6,1.8 6,0.8 0.4,0.2 L0.4,5.68434189e-14 C1.8,0.1 14.5,1.5 15.3,2 L15.3,2 C15.4,2 15.5,2.2 15.6,2.4"/><path id="XMLID_4094_" d="M16.2,3.5 C17.8,6.8 20.9,14.6 21.4,15.7 L21.2,15.8 C19.6,11.7 17.2,6.1 16,3.5"/></g></g><g id="XMLID_4089_" fill="#304457" transform="translate(6.000000, 0.000000)"><rect id="XMLID_4090_" width=".5" height="1.1" x="1.071" y=".728" transform="translate(1.320785, 1.277895) rotate(36.955841) translate(-1.320785, -1.277895)"/></g><g id="XMLID_4087_" fill="#304457" transform="translate(27.000000, 16.000000)"><rect id="XMLID_4088_" width=".5" height="1.1" x=".854" y=".407" transform="translate(1.103925, 0.957225) rotate(36.955841) translate(-1.103925, -0.957225)"/></g></g></g></g></g></g></g></svg>